<?xml version="1.0" standalone="no"?>
<!DOCTYPE svg PUBLIC "-//W3C//DTD SVG 20010904//EN"
 "http://www.w3.org/TR/2001/REC-SVG-20010904/DTD/svg10.dtd">
<svg version="1.0" xmlns="http://www.w3.org/2000/svg"
 width="476.000000pt" height="476.000000pt" viewBox="0 0 476.000000 476.000000"
 preserveAspectRatio="xMidYMid meet">
<metadata>
Created by potrace 1.11, written by Peter Selinger 2001-2013
</metadata>
<g transform="translate(0.000000,476.000000) scale(0.100000,-0.100000)"
fill="#000000" stroke="none">
<path d="M281 3394 c-160 -47 -267 -176 -278 -336 -10 -141 30 -255 120 -347
85 -86 212 -148 347 -171 41 -6 84 -13 95 -15 16 -3 23 -17 33 -72 35 -184
161 -325 348 -389 68 -24 95 -27 194 -27 132 0 204 19 298 80 126 80 146 117
148 283 1 73 -2 130 -8 138 -7 8 -49 12 -143 12 -112 0 -134 -2 -139 -16 -3
-9 -4 -19 -1 -24 3 -4 53 -8 113 -8 59 0 113 -1 120 -1 9 -1 12 -30 12 -110 0
-108 0 -110 -32 -152 -74 -96 -194 -151 -338 -155 -122 -4 -187 9 -279 53
-128 61 -211 167 -245 311 -11 47 -12 64 -3 67 7 2 66 6 132 9 312 15 575 140
707 337 42 62 62 140 54 211 -15 151 -122 232 -301 231 -167 -2 -317 -65 -435
-183 -41 -42 -90 -101 -109 -133 -62 -105 -99 -243 -105 -387 -1 -24 -4 -25
-51 -22 -203 12 -398 131 -455 277 -20 49 -24 79 -25 160 0 91 3 105 30 158
59 118 175 189 310 190 52 0 81 -5 111 -21 39 -20 87 -67 96 -93 2 -7 11 -10
20 -6 45 17 -47 124 -130 151 -57 19 -146 19 -211 0z m1094 -161 c81 -43 116
-109 110 -210 -7 -145 -139 -289 -340 -372 -130 -54 -254 -79 -425 -85 -92 -4
-92 -4 -85 77 22 265 152 467 362 563 121 56 299 68 378 27z"/>
<path d="M2115 3141 c-125 -57 -175 -190 -135 -358 l17 -73 -26 -17 c-46 -30
-101 -95 -131 -154 -93 -184 -26 -385 158 -471 134 -64 317 -35 424 66 15 14
29 26 32 26 2 0 40 -25 84 -55 77 -53 118 -69 110 -43 -3 7 -41 39 -87 71
l-81 58 26 42 c80 129 154 389 125 436 -14 21 -31 3 -31 -32 0 -100 -117 -407
-155 -407 -22 0 -212 193 -277 280 -63 85 -121 194 -144 270 -32 107 -12 223
47 280 58 55 156 72 224 39 72 -35 94 -129 51 -214 -16 -31 -22 -53 -16 -59
26 -26 79 72 80 147 0 50 -24 110 -57 139 -53 49 -166 62 -238 29z m-74 -513
c57 -113 182 -262 327 -389 l53 -46 -38 -33 c-164 -145 -415 -101 -515 90 -35
68 -33 185 4 260 15 30 38 66 50 80 24 26 87 80 94 80 2 0 13 -19 25 -42z"/>
<path d="M2929 3133 c0 -16 -2 -278 -3 -583 -2 -541 -3 -557 -25 -643 -23 -89
-63 -191 -79 -201 -4 -3 -62 13 -128 35 -444 147 -692 177 -865 105 -89 -37
-131 -98 -132 -191 -2 -238 350 -392 698 -305 176 44 303 121 410 250 21 25
41 44 44 43 37 -11 253 -88 276 -98 17 -8 58 -23 92 -35 l63 -23 -65 -69 c-62
-68 -125 -172 -125 -210 0 -33 19 -19 46 35 15 28 41 70 58 92 28 36 124 135
131 135 2 0 104 -34 226 -75 383 -127 599 -171 809 -163 138 6 213 26 285 76
130 91 139 261 20 371 -111 103 -297 152 -550 146 -147 -3 -239 -21 -380 -71
-107 -38 -241 -108 -333 -175 l-84 -59 -221 81 c-122 44 -223 82 -225 83 -1 2
9 29 23 60 30 69 61 179 71 256 3 30 7 273 6 538 0 266 4 480 8 475 7 -7 149
-252 222 -383 105 -187 322 -558 332 -568 27 -27 54 9 169 220 63 117 129 240
147 273 18 33 58 105 88 160 30 55 75 138 100 185 25 47 51 94 59 105 11 16
13 -58 13 -468 l0 -488 23 3 22 3 1 540 c0 297 -2 546 -4 553 -9 25 -29 10
-55 -40 -14 -29 -42 -82 -62 -118 -20 -36 -69 -126 -109 -200 -41 -74 -130
-238 -199 -365 -68 -126 -135 -249 -147 -273 -26 -51 -16 -61 -117 118 -39 69
-81 144 -94 166 -13 23 -112 195 -219 383 -107 187 -200 341 -207 341 -7 0
-13 -12 -14 -27z m-710 -1308 c111 -19 549 -142 570 -161 6 -5 -24 -46 -67
-91 -81 -84 -217 -155 -360 -187 -81 -18 -265 -19 -333 -1 -213 56 -338 214
-273 344 47 95 234 134 463 96z m2099 -50 c258 -35 415 -164 381 -316 -27
-119 -143 -178 -364 -184 -129 -3 -218 8 -389 49 -190 46 -571 167 -571 182 0
14 139 103 230 148 221 108 481 153 713 121z"/>
</g>
</svg>
