<?xml version="1.0" encoding="UTF-8" standalone="no"?>
<svg width="273px" height="198px" viewBox="0 0 273 198" version="1.1" xmlns="http://www.w3.org/2000/svg" xmlns:xlink="http://www.w3.org/1999/xlink">
    <!-- Generator: Sketch 42 (36781) - http://www.bohemiancoding.com/sketch -->
    <title>Group</title>
    <desc>Created with Sketch.</desc>
    <defs>
        <polygon id="path-1" points="0 441.34465 273 441.34465 273 0.26775 0 0.26775"></polygon>
    </defs>
    <g id="Page-1" stroke="none" stroke-width="1" fill="none" fill-rule="evenodd">
        <g id="Group" transform="translate(0.000000, -242.000000)">
            <mask id="mask-2" fill="white">
                <use xlink:href="#path-1"></use>
            </mask>
            <g id="Clip-8"></g>
            <polygon id="Fill-7" fill="#35587B" mask="url(#mask-2)" points="69.1948692 491.1 422.802159 491.1 422.802159 356.28235 69.1948692 356.28235"></polygon>
            <path d="M66.2414514,279.10711 L-24.020343,370.75666 C-26.8932215,373.67471 -24.7679037,378.51801 -20.6142215,378.51801 L272.273956,487.81101 C276.427638,487.81101 166.188367,373.67471 163.315489,370.75666 L73.0536944,279.10711 C71.1962738,277.22181 68.098872,277.22181 66.2414514,279.10711" id="Fill-9" fill="#396189" mask="url(#mask-2)"></path>
            <path d="M139.389548,302.37756 L43.6260804,392.21236 C41.0925383,394.58811 -39.6865458,481.25326 -36.2132374,481.25326 L237.776707,398.83641 C241.250865,398.83641 242.932239,394.58811 240.400398,392.21236 L144.63608,302.37756 C143.16137,300.99376 140.864258,300.99376 139.389548,302.37756" id="Fill-10" fill="#334F6F" mask="url(#mask-2)"></path>
            <path d="M0.0427725248,242.153033 C-1.83931159,239.959183 -2.97493458,234.21742 -4.85701869,236.41127 L-85.2848598,330.15692 C-87.9085514,333.21522 -85.734757,464.86662 -81.7043925,464.86662 L221.774654,480.48367 C225.804168,480.48367 85.3545981,333.21522 82.731757,330.15692 L0.0427725248,242.153033 Z" id="Fill-11" fill="#314F6F" mask="url(#mask-2)"></path>
            <polygon id="Fill-12" fill="#35587B" mask="url(#mask-2)" points="279.197033 236.270581 48.075385 454.146505 282.672535 457.216705"></polygon>
        </g>
    </g>
</svg>